<svg id="圖層_1" data-name="圖層 1" xmlns="http://www.w3.org/2000/svg" viewBox="0 0 100 100"><defs><style>.cls-1{fill:#615a50;}</style></defs><title>sunglasses</title><path class="cls-1" d="M39.8,59.22a9.44,9.44,0,0,1,7.62-9.28v-2a2.58,2.58,0,1,1,5.16,0V50a10.16,10.16,0,0,1,6.84,5.91,2.58,2.58,0,0,1-4.75,2A5,5,0,0,0,50,54.8c-2.43,0-5,1.38-5,4.41,0,.79,0,3.19,5.62,4.48h.08c8.25,1.93,9.54,6.77,9.54,9.48a9.44,9.44,0,0,1-7.62,9.28v2.06a2.58,2.58,0,0,1-5.16,0V82.46a10.16,10.16,0,0,1-6.84-5.91,2.58,2.58,0,0,1,4.69-2.13l.06.14A5,5,0,0,0,50,77.65c2.43,0,5-1.38,5-4.41,0-.79,0-3.19-5.62-4.48h-.08C41,66.78,39.8,61.94,39.8,59.22ZM58.37,23.83a2.58,2.58,0,0,0,3.56-.65l8.88-12.64a2.59,2.59,0,0,0-.47-3.48c-11.41-9.47-29.27-9.46-40.67,0a2.58,2.58,0,0,0-.46,3.47l8.88,12.62a2.58,2.58,0,0,0,4.22-3L34.85,9.63a27.54,27.54,0,0,1,30.3,0L57.71,20.24a2.58,2.58,0,0,0,.63,3.59ZM15.28,74.05A58.62,58.62,0,0,1,36.12,29.37a2.58,2.58,0,0,1,1.66-.61H62.22a2.58,2.58,0,0,1,1.66.61A58.62,58.62,0,0,1,84.73,74.05v7.33l.79.38A9.6,9.6,0,0,1,81.4,100H18.6a9.6,9.6,0,0,1-4.13-18.27l.79-.38Zm-1,17.36a4.41,4.41,0,0,0,4.33,3.47H81.39a4.45,4.45,0,0,0,1.92-8.45L81,85.4A2.58,2.58,0,0,1,79.59,83v-9A53.48,53.48,0,0,0,61.27,33.92H38.74A53.47,53.47,0,0,0,20.43,74.06v9A2.58,2.58,0,0,1,19,85.33l-2.26,1a4.42,4.42,0,0,0-2.44,5Z"/></svg>