<svg id="圖層_1" data-name="圖層 1" xmlns="http://www.w3.org/2000/svg" viewBox="0 0 100 100"><defs><style>.cls-1{fill:#615a50;}</style></defs><title>sunglasses</title><path class="cls-1" d="M47.74,11.7a38.2,38.2,0,0,0-23.22,9.63l3.92,3.92a2.26,2.26,0,0,1-3.13,3.26l-.06-.06-3.92-3.92A38.22,38.22,0,0,0,11.7,47.75h5.55a2.26,2.26,0,0,1,0,4.52H11.7a38.21,38.21,0,0,0,9.63,23.22l3.91-3.92a2.26,2.26,0,1,1,3.19,3.19l-3.91,3.92A38.2,38.2,0,0,0,47.73,88.3V82.75A2.26,2.26,0,0,1,50,80.46h0a2.26,2.26,0,0,1,2.29,2.22s0,0,0,.07V88.3a38.22,38.22,0,0,0,23.22-9.62l-3.92-3.92a2.26,2.26,0,1,1,3.2-3.19l3.92,3.92A38.2,38.2,0,0,0,88.3,52.27H82.73a2.26,2.26,0,0,1,0-4.52h5.57a38.21,38.21,0,0,0-9.63-23.23l-3.93,3.93a2.26,2.26,0,1,1-3.26-3.13l.06-.06,3.93-3.93A38.22,38.22,0,0,0,52.25,11.7v5.57a2.26,2.26,0,0,1-4.52,0ZM36.43,34.17a2.26,2.26,0,0,1,1.62.68L50.94,47.75H68.06a2.26,2.26,0,0,1,0,4.52h-19L34.86,38.06a2.26,2.26,0,0,1,1.57-3.88Z"/><path class="cls-1" d="M50,2.59A47.41,47.41,0,1,0,97.41,50,47.44,47.44,0,0,0,50,2.59Zm0,4.52A42.89,42.89,0,1,1,7.11,50,42.86,42.86,0,0,1,50,7.11Z"/></svg>