<svg id="圖層_1" data-name="圖層 1" xmlns="http://www.w3.org/2000/svg" viewBox="0 0 100 100"><defs><style>.cls-1{fill:#615a50;}</style></defs><title>sunglasses</title><path class="cls-1" d="M62.83,69.05l6.24-6.25-4.65-4.64a34.5,34.5,0,1,0-6.24,6.24ZM19,55.18a25.56,25.56,0,1,1,36.15,0A25.55,25.55,0,0,1,19,55.18Z"/><path class="cls-1" d="M94.7,81.67,74,61,61,74,81.68,94.71a9.22,9.22,0,1,0,13-13Z"/><path class="cls-1" d="M27,27.43a12.54,12.54,0,0,1,.93-1,40.68,40.68,0,0,0-13.84,8.87l-.68.7.68.7a40.62,40.62,0,0,0,13.85,8.87A13.13,13.13,0,0,1,24,38.24,13.32,13.32,0,0,1,27,27.43Z"/><path class="cls-1" d="M60.14,35.32a40.83,40.83,0,0,0-13.86-8.88,13.17,13.17,0,0,1,3.91,7.35,13.32,13.32,0,0,1-3,10.8,12.53,12.53,0,0,1-.93,1,40.81,40.81,0,0,0,13.84-8.87l.67-.7Z"/><path class="cls-1" d="M35.53,34.72a2,2,0,1,0,3.57.89A2,2,0,0,0,35.53,34.72Z"/><path class="cls-1" d="M48.23,34.11a11.28,11.28,0,1,0-13,13,12.35,12.35,0,0,0,1.91.16A11.29,11.29,0,0,0,48.23,34.11Zm-8,4.47a4,4,0,1,1,.85-3.34A4,4,0,0,1,40.2,38.58Z"/></svg>