<svg id="圖層_1" data-name="圖層 1" xmlns="http://www.w3.org/2000/svg" viewBox="0 0 100 100"><defs><style>.cls-1{fill:#615a50;}</style></defs><title>sunglasses</title><path class="cls-1" d="M11.7,14c-.38.33-.75.66-1.11,1l-.36.36a26.76,26.76,0,0,0-1.81,2A27.14,27.14,0,0,0,9.92,53.28h0c.1.11.19.22.29.33l38.65,38.8a1.59,1.59,0,0,0,2.25,0h0L62.89,80.61l.08-.07,26.8-26.91a27.15,27.15,0,0,0,0-38.24L89.41,15a26.86,26.86,0,0,0-38-.11l-.11.11L50,16.35,48.68,15a26.8,26.8,0,0,0-36.79-1.19Zm.78,3.62.22-.22A53.91,53.91,0,0,0,23.4,28.72a1.59,1.59,0,0,0,2.11-.12l4-4A1.78,1.78,0,0,1,32,27.14l-4,4a1.59,1.59,0,0,0,0,2.25h0L39.94,45.27a1.78,1.78,0,0,1,0,2.52,1.82,1.82,0,0,1-2.52,0h0l-8.54-8.55-2.25,2.25L35.18,50a1.78,1.78,0,0,1,0,2.52,1.82,1.82,0,0,1-2.52,0h0L24.11,44l-2.25,2.25,8.54,8.55a1.78,1.78,0,0,1,0,2.52,1.82,1.82,0,0,1-2.52,0h0l-8.54-8.55L17.1,51l8.54,8.55a1.79,1.79,0,0,1,0,2.52,1.76,1.76,0,0,1-2.32.15L12.2,51.07a24.05,24.05,0,0,1-1.33-31.66Q11.62,18.49,12.48,17.63Zm46,60.45a1.79,1.79,0,0,1,0-2.52L67,67l-2.25-2.25-8.54,8.55h0a1.82,1.82,0,0,1-2.52,0,1.79,1.79,0,0,1,0-2.52l8.54-8.55L60,60l-8.54,8.55h0a1.82,1.82,0,0,1-2.52,0,1.79,1.79,0,0,1,0-2.52l8.54-8.55-2.25-2.25-8.54,8.55h0a1.82,1.82,0,0,1-2.52,0,1.79,1.79,0,0,1,0-2.52L56.08,49.35a1.59,1.59,0,0,0,0-2.25h0l-4-4a1.78,1.78,0,0,1,2.52-2.52l4,4a1.59,1.59,0,0,0,2.11.12,54.42,54.42,0,0,0,19-29.38l.74-2.76c.61.28,1.2.59,1.77.93l.18.11q.78.46,1.52,1l.46.35c.41.3.82.6,1.21.93.23.19.44.4.66.61s.61.54.9.83l.36.36a24,24,0,0,1,0,33.74L60.76,78.24A1.77,1.77,0,0,1,58.46,78.08Z"/></svg>