<svg id="圖層_1" data-name="圖層 1" xmlns="http://www.w3.org/2000/svg" viewBox="0 0 48 38"><defs><style>.cls-1{fill:#fff;}</style></defs><title>iconw</title><path class="cls-1" d="M47.73,11.33l.07-.07c0-.07.07-.07.07-.13a.07.07,0,0,1,.06-.07h0a.23.23,0,0,1,.07-.13v-.67c0-.07,0-.13-.07-.13s0-.07-.07-.07-.07-.07-.07-.13l-.07-.07a.07.07,0,0,0-.06-.07h0L39.86.6a1.42,1.42,0,0,0-1-.47H9.13a1.42,1.42,0,0,0-1,.47l-7.8,9a.06.06,0,0,1-.06.07h0L.2,9.73c0,.07-.07.07-.07.13a.06.06,0,0,1-.06.07h0a.23.23,0,0,1-.07.13v.67c0,.07,0,.13.07.13s0,.07.07.07.07.07.07.13l.07.07a.06.06,0,0,0,.06.07h0L23,37.47h0l.13.13.07.07h.07a.23.23,0,0,0,.13.07.07.07,0,0,1,.07.06h0c.07,0,.07,0,.13.07h.8c.07,0,.07,0,.13-.07a.06.06,0,0,0,.07-.06h0c.07,0,.07-.07.13-.07h.07l.07-.07.13-.13h0L47.67,11.2C47.67,11.33,47.73,11.33,47.73,11.33Zm-35.8.47L19.4,29.4,4.27,11.8Zm13.4,0H33.2L25.33,30.27ZM22.67,30.27,14.8,11.8h7.87ZM36.07,11.8h7.67L28.6,29.47Zm7.67-2.67H36.07L33.33,2.8h4.93Zm-10.53,0H25.33V2.8h5.13ZM22.67,2.8V9.13H14.8L17.53,2.8ZM9.73,2.8h4.93L11.93,9.13H4.27Z"/></svg>