<svg id="圖層_1" data-name="圖層 1" xmlns="http://www.w3.org/2000/svg" viewBox="0 0 48 37.73"><defs><style>.cls-1{fill:#d84339;}</style></defs><title>icon01</title><path class="cls-1" d="M47.73,11.2l.07-.07c0-.07.07-.07.07-.13a.07.07,0,0,1,.06-.07h0A.23.23,0,0,1,48,10.8v-.67c0-.07,0-.13-.07-.13s0-.07-.07-.07-.07-.07-.07-.13l-.07-.07a.07.07,0,0,0-.06-.07h0L39.86.47a1.42,1.42,0,0,0-1-.47H9.13a1.42,1.42,0,0,0-1,.47l-7.8,9a.06.06,0,0,1-.06.07h0L.2,9.6c0,.07-.07.07-.07.13a.06.06,0,0,1-.06.07h0A.23.23,0,0,1,0,9.93v.67c0,.07,0,.13.07.13s0,.07.07.07.07.07.07.13L.27,11a.06.06,0,0,0,.06.07h0L23,37.33h0l.13.13.07.07h.07a.23.23,0,0,0,.13.07.07.07,0,0,1,.07.06h0c.07,0,.07,0,.13.07h.8c.07,0,.07,0,.13-.07a.06.06,0,0,0,.07-.06h0c.07,0,.07-.07.13-.07h.07l.07-.07.13-.13h0L47.67,11.07C47.67,11.2,47.73,11.2,47.73,11.2Zm-35.8.47,7.47,17.6L4.27,11.67Zm13.4,0H33.2L25.33,30.13ZM22.67,30.13,14.8,11.67h7.87Zm13.4-18.47h7.67L28.6,29.33ZM43.73,9H36.07L33.33,2.67h4.93ZM33.2,9H25.33V2.67h5.13ZM22.67,2.67V9H14.8l2.73-6.33Zm-12.93,0h4.93L11.93,9H4.27Z"/></svg>