<svg id="圖層_1" data-name="圖層 1" xmlns="http://www.w3.org/2000/svg" viewBox="0 0 48 48"><defs><style>.cls-1{fill:#d84339;}</style></defs><title>sunglasses</title><path class="cls-1" d="M24,36.32A12.32,12.32,0,1,0,11.68,24,12.32,12.32,0,0,0,24,36.32Zm0-22.75A10.43,10.43,0,1,1,13.57,24,10.43,10.43,0,0,1,24,13.57Z"/><path class="cls-1" d="M24,37.27h0A13.27,13.27,0,1,1,37.27,24,13.31,13.31,0,0,1,24,37.27Zm-.52-1.91H24A11.38,11.38,0,1,0,12.62,24s0,.1,0,.15,0-.1,0-.15A11.41,11.41,0,0,1,24,12.63h0a11.38,11.38,0,0,1,0,22.75ZM24,14.52A9.48,9.48,0,1,0,33.48,24,9.51,9.51,0,0,0,24,14.52Z"/><rect class="cls-1" x="23.05" y="1.25" width="1.9" height="6.64"/><path class="cls-1" d="M25.9,8.83H22.1V.3H25.9ZM24,6.94h0v0Z"/><rect class="cls-1" x="23.05" y="40.11" width="1.9" height="6.64"/><path class="cls-1" d="M25.9,47.7H22.1V39.17H25.9ZM24,45.8h0v0Z"/><rect class="cls-1" x="40.11" y="23.05" width="6.64" height="1.9"/><path class="cls-1" d="M47.7,25.9H39.17V22.1H47.7ZM41.06,24h0Z"/><rect class="cls-1" x="1.25" y="23.05" width="6.64" height="1.9"/><path class="cls-1" d="M8.83,25.9H.3V22.1H8.83ZM2.2,24h0Z"/><rect class="cls-1" x="34.42" y="9.31" width="6.64" height="1.9" transform="translate(3.8 29.69) rotate(-45)"/><path class="cls-1" d="M36.07,14.62l-2.68-2.68,6-6L42.1,8.58Zm0-2.68,1.87-1.87Z"/><rect class="cls-1" x="6.94" y="36.79" width="6.64" height="1.9" transform="translate(-23.68 18.31) rotate(-45)"/><path class="cls-1" d="M8.58,42.1,5.9,39.42l6-6,2.68,2.68Zm0-2.68h0l3.35-3.35h0Z"/><rect class="cls-1" x="36.79" y="34.42" width="1.9" height="6.64" transform="translate(-15.63 37.74) rotate(-45)"/><rect class="cls-1" x="35.84" y="33.47" width="3.79" height="8.53" transform="translate(-15.63 37.74) rotate(-45)"/><rect class="cls-1" x="9.31" y="6.94" width="1.9" height="6.64" transform="translate(-4.25 10.26) rotate(-45)"/><path class="cls-1" d="M11.93,14.62l-6-6L8.58,5.9l6,6Zm-3.35-6,3.35,3.35Z"/></svg>