<svg id="圖層_1" data-name="圖層 1" xmlns="http://www.w3.org/2000/svg" viewBox="0 0 47.4 47.4"><defs><style>.cls-1{fill:#fff;}</style></defs><title>iconw</title><path class="cls-1" d="M23.7,36A12.32,12.32,0,1,0,11.37,23.7,12.32,12.32,0,0,0,23.7,36Zm0-22.75A10.43,10.43,0,1,1,13.27,23.7,10.43,10.43,0,0,1,23.7,13.27Z"/><path class="cls-1" d="M23.7,37h0A13.27,13.27,0,1,1,37,23.7,13.31,13.31,0,0,1,23.7,37Zm-.52-1.91h.52A11.38,11.38,0,1,0,12.32,23.7s0,.1,0,.15,0-.1,0-.15A11.41,11.41,0,0,1,23.7,12.32h0a11.38,11.38,0,1,1,0,22.75Zm.52-20.84a9.48,9.48,0,1,0,9.48,9.48,9.51,9.51,0,0,0-9.48-9.48Z"/><rect class="cls-1" x="22.75" y="0.95" width="1.9" height="6.64"/><path class="cls-1" d="M25.59,8.53H21.8V0h3.79Zm-1.9-1.9h0v0Z"/><rect class="cls-1" x="22.75" y="39.81" width="1.9" height="6.64"/><path class="cls-1" d="M25.59,47.4H21.8V38.86h3.79Zm-1.9-1.9h0v0Z"/><rect class="cls-1" x="39.81" y="22.75" width="6.64" height="1.9"/><path class="cls-1" d="M47.4,25.59H38.86V21.8H47.4Zm-6.64-1.9h0Z"/><rect class="cls-1" x="0.95" y="22.75" width="6.64" height="1.9"/><path class="cls-1" d="M8.53,25.59H0V21.8H8.53ZM1.9,23.7h0Z"/><rect class="cls-1" x="34.12" y="9.01" width="6.64" height="1.9" transform="translate(3.92 29.39) rotate(-45)"/><path class="cls-1" d="M35.76,14.32l-2.68-2.68,6-6L41.8,8.28Zm0-2.68,1.87-1.87Z"/><rect class="cls-1" x="6.64" y="36.49" width="6.64" height="1.9" transform="translate(-23.56 18.01) rotate(-45)"/><path class="cls-1" d="M8.28,41.8,5.6,39.12l6-6,2.68,2.68Zm0-2.68h0l3.35-3.35h0Z"/><rect class="cls-1" x="36.49" y="34.12" width="1.9" height="6.64" transform="translate(-15.51 37.44) rotate(-45)"/><rect class="cls-1" x="35.54" y="33.17" width="3.79" height="8.53" transform="translate(-15.51 37.44) rotate(-45)"/><rect class="cls-1" x="9.01" y="6.64" width="1.9" height="6.64" transform="translate(-4.12 9.96) rotate(-45)"/><path class="cls-1" d="M11.63,14.31l-6-6L8.28,5.6l6,6Zm-3.35-6,3.35,3.35Z"/></svg>